<svg width="30" height="30" viewBox="0 0 30 30" fill="none" xmlns="http://www.w3.org/2000/svg">
<path d="M14.9908 30C14.4803 30 14.0545 29.8272 13.7131 29.4815C13.3719 29.1357 13.2012 28.709 13.2012 28.2012V16.7988H1.7988C1.29103 16.7988 0.864274 16.625 0.518544 16.2776C0.172848 15.9301 0 15.5011 0 14.9908C0 14.4803 0.172848 14.0545 0.518544 13.7131C0.864274 13.3719 1.29103 13.2012 1.7988 13.2012H13.2012V1.7988C13.2012 1.29103 13.3749 0.864274 13.7224 0.518544C14.0699 0.172848 14.4989 0 15.0092 0C15.5197 0 15.9455 0.172848 16.2869 0.518544C16.6281 0.864274 16.7988 1.29103 16.7988 1.7988V13.2012H28.2012C28.709 13.2012 29.1357 13.375 29.4815 13.7224C29.8272 14.0699 30 14.4989 30 15.0092C30 15.5197 29.8272 15.9455 29.4815 16.2869C29.1357 16.6281 28.709 16.7988 28.2012 16.7988H16.7988V28.2012C16.7988 28.709 16.6251 29.1357 16.2776 29.4815C15.9301 29.8272 15.5011 30 14.9908 30Z" fill="white"/>
</svg>
