<svg width="30" height="23" viewBox="0 0 30 23" fill="none" xmlns="http://www.w3.org/2000/svg">
<path d="M24.6796 13.2374C24.353 13.2374 24.0875 13.1311 23.883 12.9185C23.6785 12.7059 23.5763 12.4425 23.5763 12.1283V9.03197H20.48C20.1551 9.03197 19.889 8.92511 19.6817 8.7114C19.4745 8.49771 19.3708 8.23291 19.3708 7.917C19.3708 7.59045 19.4745 7.32492 19.6817 7.12041C19.889 6.91594 20.1551 6.8137 20.48 6.8137H23.5763V3.71739C23.5763 3.39249 23.6805 3.1264 23.8889 2.91914C24.0972 2.71187 24.3616 2.60823 24.6819 2.60823C25.0021 2.60823 25.2677 2.71187 25.4784 2.91914C25.6892 3.1264 25.7945 3.39249 25.7945 3.71739V6.8137H28.8908C29.2051 6.8137 29.4685 6.91788 29.6811 7.12626C29.8937 7.33464 30 7.59897 30 7.91926C30 8.23955 29.8937 8.50507 29.6811 8.71582C29.4685 8.92659 29.2051 9.03197 28.8908 9.03197H25.7945V12.1283C25.7945 12.4425 25.6877 12.7059 25.474 12.9185C25.2603 13.1311 24.9955 13.2374 24.6796 13.2374ZM11.1173 10.9036C9.50936 10.9036 8.19561 10.3961 7.17605 9.38094C6.15651 8.36581 5.64675 7.05738 5.64675 5.45565C5.64675 3.8539 6.15561 2.54419 7.17333 1.52651C8.19105 0.508838 9.50261 0 11.108 0C12.7134 0 14.025 0.508838 15.0426 1.52651C16.0603 2.54419 16.5691 3.8539 16.5691 5.45565C16.5691 7.05738 16.0612 8.36581 15.0453 9.38094C14.0294 10.3961 12.7201 10.9036 11.1173 10.9036ZM1.31566 22.5235C0.945697 22.5235 0.63393 22.3968 0.380358 22.1432C0.126786 21.8896 0 21.5778 0 21.2079V18.9018C0 18.0303 0.225549 17.2459 0.676646 16.5485C1.12777 15.8511 1.74273 15.3217 2.52154 14.9603C4.20739 14.2171 5.71476 13.6928 7.04365 13.3876C8.37254 13.0824 9.72865 12.9298 11.112 12.9298C12.4942 12.9298 13.8519 13.0824 15.1849 13.3876C16.5179 13.6928 18.0099 14.2171 19.6611 14.9603C20.4491 15.3279 21.0719 15.8553 21.5295 16.5425C21.9871 17.2298 22.2159 18.0137 22.2159 18.8943V21.2079C22.2159 21.5778 22.0891 21.8896 21.8355 22.1432C21.5819 22.3968 21.2702 22.5235 20.9002 22.5235H1.31566ZM2.65008 19.8922H19.5845V18.9694C19.5845 18.6225 19.4928 18.2915 19.3094 17.9765C19.126 17.6615 18.8524 17.4292 18.4884 17.2797C16.9884 16.5644 15.706 16.1022 14.6412 15.8933C13.5764 15.6844 12.3987 15.5799 11.108 15.5799C9.84237 15.5799 8.66774 15.6899 7.58415 15.9099C6.50052 16.1299 5.21014 16.5865 3.713 17.2797C3.36833 17.4292 3.10501 17.6615 2.92305 17.9765C2.74107 18.2915 2.65008 18.6225 2.65008 18.9694V19.8922ZM11.1073 8.27228C11.9275 8.27228 12.6043 8.00657 13.1377 7.47513C13.6711 6.94367 13.9378 6.26946 13.9378 5.4525C13.9378 4.63035 13.6721 3.95463 13.1406 3.42532C12.6092 2.89601 11.935 2.63135 11.118 2.63135C10.2915 2.63135 9.61466 2.89629 9.08754 3.42618C8.5604 3.95607 8.29683 4.62839 8.29683 5.44316C8.29683 6.26312 8.56018 6.93963 9.08688 7.4727C9.61355 8.00576 10.287 8.27228 11.1073 8.27228Z" fill="#FCFCFC"/>
</svg>
