<svg width="30" height="30" viewBox="0 0 30 30" fill="none" xmlns="http://www.w3.org/2000/svg">
<path d="M22.6086 3H28.4783C28.8819 3 29.2689 3.15804 29.5543 3.43934C29.8397 3.72064 30 4.10218 30 4.5V28.5C30 28.8978 29.8397 29.2794 29.5543 29.5607C29.2689 29.842 28.8819 30 28.4783 30H1.52173C1.11814 30 0.731083 29.842 0.445704 29.5607C0.160324 29.2794 0 28.8978 0 28.5V4.5C0 4.10218 0.160324 3.72064 0.445704 3.43934C0.731083 3.15804 1.11814 3 1.52173 3H7.39135V1C7.39135 0.447715 7.83907 0 8.39135 0H9.43481C9.98709 0 10.4348 0.447715 10.4348 1V3H19.5652V1C19.5652 0.447715 20.0129 0 20.5652 0H21.6086C22.1609 0 22.6086 0.447715 22.6086 1V3ZM2.60888 11.3571V27.4286H27.3913V11.3571H2.60888ZM5.8696 19C5.86961 18.4477 6.31732 18 6.8696 18H12.4783C13.0305 18 13.4783 18.4477 13.4783 19V21.2857C13.4783 21.838 13.0305 22.2857 12.4783 22.2857H6.86955C6.31725 22.2857 5.86954 21.838 5.86955 21.2857L5.8696 19Z" fill="black"/>
</svg>
