<svg width="30" height="22" viewBox="0 0 30 22" fill="none" xmlns="http://www.w3.org/2000/svg">
<path d="M10.2664 21.6632C10.0276 21.6632 9.80002 21.619 9.58353 21.5306C9.36704 21.4423 9.16369 21.303 8.97348 21.1128L0.550342 12.6897C0.183447 12.3228 0 11.8763 0 11.3502C0 10.8241 0.183447 10.3776 0.550342 10.0107C0.917237 9.64385 1.3526 9.4604 1.85644 9.4604C2.36025 9.4604 2.80436 9.64385 3.18878 10.0107L10.2664 17.0884L26.8173 0.563805C27.1842 0.19691 27.6229 0.00907194 28.1335 0.00029202C28.644 -0.00845687 29.0827 0.179381 29.4497 0.563805C29.8166 0.9307 30 1.37382 30 1.89317C30 2.41249 29.8166 2.8556 29.4497 3.22249L11.5593 21.1128C11.3691 21.303 11.1658 21.4423 10.9493 21.5306C10.7328 21.619 10.5052 21.6632 10.2664 21.6632Z" fill="white"/>
</svg>
