<svg width="30" height="30" viewBox="0 0 30 30" fill="none" xmlns="http://www.w3.org/2000/svg">
<path d="M7.09091 23.4375C8.30832 23.4375 9.49335 23.6328 10.646 24.0234C11.7987 24.4141 12.6241 24.7266 13.7378 25.5078V5.49218C12.715 4.55468 11.9134 4.10156 10.7175 3.58594C9.52167 3.07031 8.3128 2.8125 7.09091 2.8125C6.22727 2.8125 5.38068 2.96094 4.55114 3.25781C3.72159 3.55469 3.3217 3.70141 2.48079 4.13891V24.4827C3.18534 24.0452 3.55114 23.9453 4.44886 23.7422C5.34659 23.5391 6.22727 23.4375 7.09091 23.4375ZM16.5 25.5078C17.6364 24.7266 18.3409 24.4141 19.4318 24.0234C20.5227 23.6328 21.6818 23.4375 22.9091 23.4375C23.7727 23.4375 24.6648 23.5313 25.5852 23.7188C26.5057 23.9063 26.9594 23.9358 27.6185 24.2483V4.13891C26.8458 3.60766 26.3657 3.4375 25.5061 3.1875C24.6465 2.9375 23.7808 2.8125 22.9091 2.8125C21.6818 2.8125 20.4943 3.07031 19.3466 3.58594C18.1989 4.10156 17.5227 4.55468 16.5 5.49218V25.5078ZM15.0682 30C13.9091 28.8125 12.6477 27.8984 11.2841 27.2578C9.92046 26.6172 8.52273 26.2969 7.09091 26.2969C6.26052 26.2969 5.44498 26.4375 4.64427 26.7188C3.84355 27 3.04545 27.3437 2.25 27.75C1.725 28.0938 1.21875 28.0469 0.73125 27.6094C0.24375 27.1719 0 26.5469 0 25.7344V4.03125C0 3.5625 0.0795455 3.13281 0.238636 2.74219C0.397727 2.35156 0.636364 2.04688 0.954545 1.82812C1.90909 1.20312 2.90222 0.742188 3.93392 0.445312C4.9656 0.148437 6.01793 0 7.09091 0C8.52273 0 9.91477 0.265625 11.267 0.796875C12.6193 1.32812 13.8864 2.14062 15.0682 3.23438C16.2273 2.14062 17.4716 1.32812 18.8011 0.796875C20.1307 0.265625 21.5 0 22.9091 0C23.9743 0 25.019 0.148437 26.0432 0.445312C27.0674 0.742188 28.0568 1.20312 29.0114 1.82812C29.3295 2.04688 29.5739 2.35156 29.7443 2.74219C29.9148 3.13281 30 3.5625 30 4.03125V25.7344C30 26.6061 29.7443 27.2693 29.233 27.7241C28.7216 28.1789 28.2159 28.1875 27.7159 27.75C26.9432 27.3125 26.1565 26.9609 25.3557 26.6953C24.555 26.4297 23.7395 26.2969 22.9091 26.2969C21.4773 26.2969 20.1023 26.625 18.7841 27.2812C17.4659 27.9375 16.2273 28.8438 15.0682 30Z" fill="white"/>
</svg>
