<svg width="28" height="30" viewBox="0 0 28 30" fill="none" xmlns="http://www.w3.org/2000/svg">
<path d="M4.62057 30C3.86842 30 3.21623 29.7248 2.66399 29.1745C2.11176 28.6242 1.83564 27.9743 1.83564 27.2248V4.1725H1.38758C0.995886 4.1725 0.666708 4.03848 0.400041 3.77043C0.133348 3.50238 0 3.17149 0 2.77776C0 2.38406 0.133348 2.05556 0.400041 1.79226C0.666708 1.52896 0.995886 1.39731 1.38758 1.39731H8.08644C8.08644 0.998859 8.21978 0.666354 8.48648 0.399796C8.75314 0.133266 9.08232 0 9.47401 0H17.7641C18.155 0 18.4856 0.135166 18.7559 0.405499C19.0263 0.675832 19.1614 1.00644 19.1614 1.39731H25.8506C26.2422 1.39731 26.5714 1.53135 26.8381 1.79943C27.1048 2.06748 27.2381 2.39836 27.2381 2.79206C27.2381 3.18578 27.1048 3.51428 26.8381 3.77756C26.5714 4.04086 26.2422 4.1725 25.8506 4.1725H25.4025V27.2248C25.4025 27.9743 25.1264 28.6242 24.5741 29.1745C24.0219 29.7248 23.3697 30 22.6176 30H4.62057ZM4.62057 4.1725V27.2248H22.6176V4.1725H4.62057ZM8.88957 22.4998C8.88957 22.8637 9.01612 23.1713 9.26921 23.4227C9.52227 23.674 9.83204 23.7997 10.1985 23.7997C10.565 23.7997 10.8734 23.674 11.1237 23.4227C11.374 23.1713 11.4992 22.8637 11.4992 22.4998V8.85682C11.4992 8.49288 11.371 8.18362 11.1147 7.92904C10.8584 7.67446 10.547 7.54717 10.1805 7.54717C9.814 7.54717 9.50722 7.67446 9.26016 7.92904C9.0131 8.18362 8.88957 8.49288 8.88957 8.85682V22.4998ZM15.7389 22.4998C15.7389 22.8637 15.8671 23.1713 16.1234 23.4227C16.3797 23.674 16.6911 23.7997 17.0576 23.7997C17.4241 23.7997 17.7325 23.674 17.9828 23.4227C18.2331 23.1713 18.3583 22.8637 18.3583 22.4998V8.85682C18.3583 8.49288 18.2311 8.18362 17.9767 7.92904C17.7223 7.67446 17.4109 7.54717 17.0425 7.54717C16.6741 7.54717 16.3647 7.67446 16.1144 7.92904C15.8641 8.18362 15.7389 8.49288 15.7389 8.85682V22.4998Z" fill="white"/>
</svg>
