<svg width="30" height="30" viewBox="0 0 30 30" fill="none" xmlns="http://www.w3.org/2000/svg">
<path d="M2.71306 27.3057H4.225L22.0382 9.41865L20.5262 7.90435L2.71306 25.7914V27.3057ZM27.565 7.69203L22.2731 2.3919L23.8803 0.759187C24.3915 0.247243 25.0191 -0.00578592 25.7633 0.000100366C26.5075 0.00601377 27.1558 0.270205 27.708 0.792673L29.2253 2.28928C29.7775 2.82708 30.0345 3.46571 29.9963 4.20518C29.958 4.94466 29.6862 5.56745 29.1809 6.07356L27.565 7.69203ZM1.6224 30C1.16615 30 0.781692 29.8435 0.469015 29.5304C0.156338 29.2174 0 28.8325 0 28.3757V25.3517C0 25.1412 0.0385666 24.9413 0.1157 24.7521C0.192833 24.5628 0.31441 24.385 0.480431 24.2187L20.5669 4.10082L25.8817 9.37796L5.79524 29.5188C5.62922 29.6851 5.44493 29.8069 5.24237 29.8841C5.03984 29.9614 4.84025 30 4.6436 30H1.6224ZM21.3052 8.66148L20.5262 7.90435L22.0382 9.41865L21.3052 8.66148Z" fill="white"/>
</svg>
