<svg width="23" height="30" viewBox="0 0 23 30" fill="none" xmlns="http://www.w3.org/2000/svg">
<path d="M0 30C0 26.969 1.20408 24.0621 3.34735 21.9188C5.49062 19.7755 8.39753 18.5714 11.4286 18.5714C14.4596 18.5714 17.3665 19.7755 19.5098 21.9188C21.6531 24.0621 22.8571 26.969 22.8571 30H20C20 27.7267 19.0969 25.5465 17.4895 23.9391C15.882 22.3316 13.7019 21.4286 11.4286 21.4286C9.15529 21.4286 6.97511 22.3316 5.36766 23.9391C3.7602 25.5465 2.85714 27.7267 2.85714 30H0ZM11.4286 17.1429C6.69286 17.1429 2.85714 13.3071 2.85714 8.57143C2.85714 3.83571 6.69286 0 11.4286 0C16.1643 0 20 3.83571 20 8.57143C20 13.3071 16.1643 17.1429 11.4286 17.1429ZM11.4286 14.2857C14.5857 14.2857 17.1429 11.7286 17.1429 8.57143C17.1429 5.41429 14.5857 2.85714 11.4286 2.85714C8.27143 2.85714 5.71429 5.41429 5.71429 8.57143C5.71429 11.7286 8.27143 14.2857 11.4286 14.2857Z" fill="#ABABAB"/>
</svg>
