<svg width="30" height="22" viewBox="0 0 30 22" fill="none" xmlns="http://www.w3.org/2000/svg">
<path d="M15.0432 13.1033C14.6924 13.1039 14.3506 12.9919 14.0681 12.7839L0.75193 2.95773C0.578674 2.82977 0.432338 2.66896 0.321276 2.48448C0.210214 2.3 0.136602 2.09547 0.104643 1.88257C0.040098 1.45259 0.149132 1.0146 0.407759 0.664953C0.666385 0.315305 1.05342 0.0826413 1.48372 0.0181443C1.91402 -0.0463526 2.35233 0.0626008 2.70224 0.321036L15.0432 9.41846L27.3843 0.321036C27.5575 0.193072 27.7543 0.100461 27.9634 0.0484906C28.1724 -0.00347963 28.3897 -0.0137913 28.6028 0.0181443C28.8158 0.05008 29.0205 0.123637 29.2051 0.234617C29.3897 0.345597 29.5507 0.491825 29.6787 0.664953C29.8068 0.838081 29.8995 1.03472 29.9515 1.24364C30.0035 1.45256 30.0138 1.66967 29.9818 1.88257C29.9499 2.09547 29.8763 2.3 29.7652 2.48448C29.6542 2.66896 29.5078 2.82977 29.3346 2.95773L16.0184 12.7839C15.7359 12.9919 15.3941 13.1039 15.0432 13.1033Z" fill="#7AE229"/>
<path d="M14.9566 21.6873C14.6058 21.6879 14.2639 21.576 13.9815 21.368L0.665322 11.5418C0.492066 11.4138 0.345729 11.253 0.234667 11.0685C0.123605 10.884 0.0499934 10.6795 0.0180341 10.4666C-0.0465106 10.0366 0.0625234 9.59862 0.32115 9.24898C0.579777 8.89933 0.966811 8.66666 1.39711 8.60217C1.82741 8.53767 2.26572 8.64662 2.61563 8.90506L14.9566 18.0025L27.2977 8.90506C27.4709 8.77709 27.6677 8.68448 27.8768 8.63251C28.0858 8.58054 28.3031 8.57023 28.5162 8.60217C28.7292 8.6341 28.9339 8.70766 29.1185 8.81864C29.3031 8.92962 29.4641 9.07585 29.5921 9.24898C29.7202 9.4221 29.8129 9.61874 29.8649 9.82766C29.9169 10.0366 29.9272 10.2537 29.8952 10.4666C29.8633 10.6795 29.7897 10.884 29.6786 11.0685C29.5675 11.253 29.4212 11.4138 29.248 11.5418L15.9318 21.368C15.6493 21.576 15.3075 21.6879 14.9566 21.6873Z" fill="#7AE229"/>
</svg>
