<svg width="30" height="22" viewBox="0 0 30 22" fill="none" xmlns="http://www.w3.org/2000/svg">
<path d="M28.3539 13.1386C28.0021 13.1392 27.6593 13.027 27.3761 12.8184L15.0022 3.69674L2.62831 12.8184C2.27747 13.0775 1.83799 13.1868 1.40654 13.1221C0.975098 13.0574 0.587033 12.8242 0.327717 12.4736C0.0684005 12.123 -0.0409261 11.6838 0.0237906 11.2527C0.0885074 10.8216 0.321966 10.4338 0.672805 10.1747L14.0245 0.322295C14.3074 0.112979 14.6502 0 15.0022 0C15.3543 0 15.697 0.112979 15.98 0.322295L29.3316 10.1747C29.6104 10.38 29.8172 10.6681 29.9224 10.9978C30.0276 11.3275 30.0258 11.682 29.9174 12.0106C29.809 12.3393 29.5994 12.6253 29.3186 12.8279C29.0378 13.0305 28.7002 13.1392 28.3539 13.1386Z" fill="#FF3D00"/>
<path d="M28.3483 21.7427C27.9965 21.7433 27.6537 21.631 27.3705 21.4225L14.9966 12.3008L2.6227 21.4225C2.27186 21.6816 1.83238 21.7908 1.40093 21.7262C0.969489 21.6615 0.581423 21.4282 0.322107 21.0776C0.0627909 20.7271 -0.0465339 20.2879 0.0181828 19.8568C0.0828996 19.4256 0.316357 19.0379 0.667196 18.7787L14.0189 8.92635C14.3018 8.71703 14.6446 8.60405 14.9966 8.60405C15.3487 8.60405 15.6914 8.71703 15.9744 8.92635L29.326 18.7787C29.6048 18.9841 29.8116 19.2721 29.9168 19.6018C30.0219 19.9315 30.0202 20.286 29.9118 20.6147C29.8034 20.9433 29.5938 21.2294 29.313 21.432C29.0322 21.6345 28.6946 21.7433 28.3483 21.7427Z" fill="#FF3D00"/>
</svg>
