<svg width="30" height="12" viewBox="0 0 30 12" fill="none" xmlns="http://www.w3.org/2000/svg">
<path d="M28.3562 3.31155H1.64384C1.20786 3.31155 0.789747 3.1371 0.481468 2.82658C0.173189 2.51606 0 2.09491 0 1.65577C0 1.21663 0.173189 0.795483 0.481468 0.484965C0.789747 0.174447 1.20786 0 1.64384 0L28.3562 0C28.7921 0 29.2103 0.174447 29.5185 0.484965C29.8268 0.795483 30 1.21663 30 1.65577C30 2.09491 29.8268 2.51606 29.5185 2.82658C29.2103 3.1371 28.7921 3.31155 28.3562 3.31155Z" fill="#FFA800"/>
<path d="M28.3562 11.25H1.64384C1.20786 11.25 0.789748 11.0756 0.481469 10.765C0.17319 10.4545 0 10.0334 0 9.59423C0 9.15509 0.17319 8.73394 0.481469 8.42342C0.789748 8.1129 1.20786 7.93845 1.64384 7.93845H28.3562C28.7921 7.93845 29.2103 8.1129 29.5185 8.42342C29.8268 8.73394 30 9.15509 30 9.59423C30 10.0334 29.8268 10.4545 29.5185 10.765C29.2103 11.0756 28.7921 11.25 28.3562 11.25Z" fill="#FFA800"/>
</svg>
