<svg width="30" height="31" viewBox="0 0 30 31" fill="none" xmlns="http://www.w3.org/2000/svg">
<path d="M14.925 24.5C15.45 24.5 15.894 24.3185 16.257 23.9555C16.619 23.5935 16.8 23.15 16.8 22.625C16.8 22.1 16.619 21.6565 16.257 21.2945C15.894 20.9315 15.45 20.75 14.925 20.75C14.4 20.75 13.956 20.9315 13.593 21.2945C13.231 21.6565 13.05 22.1 13.05 22.625C13.05 23.15 13.231 23.5935 13.593 23.9555C13.956 24.3185 14.4 24.5 14.925 24.5ZM15.15 9.05C15.85 9.05 16.4125 9.2435 16.8375 9.6305C17.2625 10.0185 17.475 10.525 17.475 11.15C17.475 11.575 17.3315 12.006 17.0445 12.443C16.7565 12.881 16.35 13.3375 15.825 13.8125C15.075 14.4625 14.525 15.0875 14.175 15.6875C13.825 16.2875 13.65 16.8875 13.65 17.4875C13.65 17.8375 13.7815 18.131 14.0445 18.368C14.3065 18.606 14.6125 18.725 14.9625 18.725C15.3125 18.725 15.625 18.6 15.9 18.35C16.175 18.1 16.35 17.7875 16.425 17.4125C16.5 16.9875 16.669 16.594 16.932 16.232C17.194 15.869 17.625 15.4 18.225 14.825C19 14.1 19.544 13.4375 19.857 12.8375C20.169 12.2375 20.325 11.575 20.325 10.85C20.325 9.575 19.844 8.531 18.882 7.718C17.919 6.906 16.675 6.5 15.15 6.5C14.1 6.5 13.169 6.7 12.357 7.1C11.544 7.5 10.9125 8.1125 10.4625 8.9375C10.2875 9.2625 10.225 9.581 10.275 9.893C10.325 10.206 10.5 10.4625 10.8 10.6625C11.125 10.8625 11.4815 10.925 11.8695 10.85C12.2565 10.775 12.575 10.5625 12.825 10.2125C13.1 9.8375 13.4315 9.55 13.8195 9.35C14.2065 9.15 14.65 9.05 15.15 9.05ZM15 30.5C12.95 30.5 11.0125 30.106 9.1875 29.318C7.3625 28.531 5.769 27.4625 4.407 26.1125C3.044 24.7625 1.969 23.175 1.182 21.35C0.394 19.525 0 17.575 0 15.5C0 13.425 0.394 11.475 1.182 9.65C1.969 7.825 3.044 6.2375 4.407 4.8875C5.769 3.5375 7.3625 2.4685 9.1875 1.6805C11.0125 0.8935 12.95 0.5 15 0.5C17.1 0.5 19.0625 0.8935 20.8875 1.6805C22.7125 2.4685 24.3 3.5375 25.65 4.8875C27 6.2375 28.0625 7.825 28.8375 9.65C29.6125 11.475 30 13.425 30 15.5C30 17.575 29.6125 19.525 28.8375 21.35C28.0625 23.175 27 24.7625 25.65 26.1125C24.3 27.4625 22.7125 28.531 20.8875 29.318C19.0625 30.106 17.1 30.5 15 30.5ZM15 27.5C18.35 27.5 21.1875 26.3315 23.5125 23.9945C25.8375 21.6565 27 18.825 27 15.5C27 12.175 25.8375 9.3435 23.5125 7.0055C21.1875 4.6685 18.35 3.5 15 3.5C11.725 3.5 8.906 4.6685 6.543 7.0055C4.181 9.3435 3 12.175 3 15.5C3 18.825 4.181 21.6565 6.543 23.9945C8.906 26.3315 11.725 27.5 15 27.5Z" fill="#CDCDCD"/>
</svg>
