<svg width="30" height="30" viewBox="0 0 30 30" fill="none" xmlns="http://www.w3.org/2000/svg">
<path d="M27.4516 29.563L17.4325 19.5399C16.6027 20.2453 15.6324 20.7955 14.5217 21.1906C13.4109 21.5857 12.2237 21.7832 10.9601 21.7832C7.89773 21.7832 5.30547 20.7195 3.18328 18.5922C1.06109 16.4648 0 13.8979 0 10.8916C0 7.88533 1.06222 5.31849 3.18667 3.19108C5.31109 1.06369 7.88131 0 10.8973 0C13.9134 0 16.4767 1.06369 18.5872 3.19108C20.6976 5.31849 21.7529 7.88743 21.7529 10.8979C21.7529 12.1076 21.5627 13.2659 21.1824 14.3727C20.802 15.4795 20.2315 16.5182 19.4709 17.4887L29.5736 27.5218C29.8579 27.7975 30 28.1302 30 28.5198C30 28.9094 29.8451 29.2559 29.5354 29.5593C29.2468 29.8531 28.8953 30 28.4809 30C28.0666 30 27.7234 29.8543 27.4516 29.563ZM10.9218 18.9299C13.1448 18.9299 15.0308 18.1447 16.5799 16.5744C18.129 15.004 18.9035 13.1098 18.9035 10.8916C18.9035 8.67347 18.1285 6.77922 16.5784 5.20887C15.0284 3.6385 13.1428 2.85331 10.9218 2.85331C8.67753 2.85331 6.77105 3.6385 5.20236 5.20887C3.63368 6.77922 2.84933 8.67347 2.84933 10.8916C2.84933 13.1098 3.63319 15.004 5.2009 16.5744C6.76858 18.1447 8.67555 18.9299 10.9218 18.9299Z" fill="#CDCDCD"/>
</svg>
